# xmcd
#
# Track frame offsets: 
#        150
#        20993
#        47681
#        66518
#        87107
#        109889
#        126887
#        147686
#        176248
#        202746
#        221422
#        244122
#        266997
#        290720
#        303355
#        320722
#
# Disc length: 4542 seconds
#
# Revision: 3
# Processed by: cddbd v1.5.2PL0 Copyright (c) Steve Scherf et al.
# Submitted via: ExactAudioCopy v1.0b6
#
DISCID=0711bc10
DTITLE=Jazz for Bar and Lounge - Best of Bar and Lounge Music [CD1)
DYEAR=2009
DGENRE=Jazz
TTITLE0=Kirk Whalum - Now 'Til Forever (2000)
TTITLE1=Joe Sample - Mystery Child (1994)
TTITLE2=George Benson - Beyond The Sea (La Mer) (1984)
TTITLE3=Rick Braun - Kisses In The Rain (2001)
TTITLE4=David Sanborn - I Told You So (1983)
TTITLE5=Randy Crawford - Rainy Night in Georgia
TTITLE6=Bob James - Mind Games (1997)
TTITLE7=Dave Brubeck - Like Someone In Love (1976)
TTITLE8=Earl Klugh - Midnight in San Juan (1991)
TTITLE9=Lee Ritenour - (You Caught Me) Smilin' (1981)
TTITLE10=Fourplay - The Closer I Get To You (1995)
TTITLE11=Michael Franks - Antonio's Song (1977)
TTITLE12=Bill Frisell - Raise Four (2006)
TTITLE13=Chico Hamilton - She's Funny That Way (1959)
TTITLE14=Mel Torme - Harlem Nocturne (Nocturne for the Blues) (1983)
TTITLE15=Anita Baker - Sweet Love
EXTD=YEAR: 2009
EXTT0=
EXTT1=
EXTT2=
EXTT3=
EXTT4=
EXTT5=
EXTT6=
EXTT7=
EXTT8=
EXTT9=
EXTT10=
EXTT11=
EXTT12=
EXTT13=
EXTT14=
EXTT15=
PLAYORDER=
